# MagicaVoxel @ Ephtracy

# group
o 

# material
mtllib fakel.mtl
usemtl palette

# normals
vn -1 0 0
vn 1 0 0
vn 0 0 1
vn 0 0 -1
vn 0 -1 0
vn 0 1 0

# texcoords
vt 0.369141 0.5
vt 0.994141 0.5

# verts
v -0.2 0 0.1
v -0.2 0 -0.2
v -0.2 6.2 0.1
v -0.2 6.2 -0.2
v -0.2 6.6 0.1
v -0.2 6.6 0
v -0.2 6.6 -0.1
v -0.2 6.6 -0.2
v -0.2 6.7 0
v -0.2 6.7 -0.1
v -0.1 0 0.2
v -0.1 0 0.1
v -0.1 0 -0.2
v -0.1 0 -0.3
v -0.1 6.2 0.2
v -0.1 6.2 0.1
v -0.1 6.2 -0.2
v -0.1 6.2 -0.3
v -0.1 6.6 0.2
v -0.1 6.6 0.1
v -0.1 6.6 0
v -0.1 6.6 -0.1
v -0.1 6.6 -0.2
v -0.1 6.6 -0.3
v -0.1 6.7 0
v -0.1 6.7 -0.1
v -0.1 6.8 0.1
v -0.1 6.8 0
v -0.1 6.8 -0.1
v -0.1 6.8 -0.2
v -0.1 6.9 0
v -0.1 6.9 -0.1
v 0 6.6 0.2
v 0 6.6 0.1
v 0 6.6 -0.2
v 0 6.6 -0.3
v 0 6.7 0.2
v 0 6.7 0.1
v 0 6.7 -0.2
v 0 6.7 -0.3
v 0 6.8 0.1
v 0 6.8 0
v 0 6.8 -0.1
v 0 6.8 -0.2
v 0 6.9 0.1
v 0 6.9 0
v 0 6.9 -0.1
v 0 6.9 -0.2
v 0.1 6.6 0.2
v 0.1 6.6 0.1
v 0.1 6.6 -0.2
v 0.1 6.6 -0.3
v 0.1 6.7 0.2
v 0.1 6.7 0.1
v 0.1 6.7 -0.2
v 0.1 6.7 -0.3
v 0.1 6.8 0.1
v 0.1 6.8 0
v 0.1 6.8 -0.1
v 0.1 6.8 -0.2
v 0.1 6.9 0.1
v 0.1 6.9 0
v 0.1 6.9 -0.1
v 0.1 6.9 -0.2
v 0.2 0 0.2
v 0.2 0 0.1
v 0.2 0 -0.2
v 0.2 0 -0.3
v 0.2 6.2 0.2
v 0.2 6.2 0.1
v 0.2 6.2 -0.2
v 0.2 6.2 -0.3
v 0.2 6.6 0.2
v 0.2 6.6 0.1
v 0.2 6.6 0
v 0.2 6.6 -0.1
v 0.2 6.6 -0.2
v 0.2 6.6 -0.3
v 0.2 6.7 0
v 0.2 6.7 -0.1
v 0.2 6.8 0.1
v 0.2 6.8 0
v 0.2 6.8 -0.1
v 0.2 6.8 -0.2
v 0.2 6.9 0
v 0.2 6.9 -0.1
v 0.3 0 0.1
v 0.3 0 -0.2
v 0.3 6.2 0.1
v 0.3 6.2 -0.2
v 0.3 6.6 0.1
v 0.3 6.6 0
v 0.3 6.6 -0.1
v 0.3 6.6 -0.2
v 0.3 6.7 0
v 0.3 6.7 -0.1
v -0.1 0 0.2
v -0.1 6.2 0.2
v -0.1 6.6 0.2
v 0 6.6 0.2
v 0 6.7 0.2
v 0.1 6.6 0.2
v 0.1 6.7 0.2
v 0.2 0 0.2
v 0.2 6.2 0.2
v 0.2 6.6 0.2
v -0.2 0 0.1
v -0.2 6.2 0.1
v -0.2 6.6 0.1
v -0.1 0 0.1
v -0.1 6.2 0.1
v -0.1 6.6 0.1
v -0.1 6.8 0.1
v 0 6.6 0.1
v 0 6.7 0.1
v 0 6.8 0.1
v 0 6.9 0.1
v 0.1 6.6 0.1
v 0.1 6.7 0.1
v 0.1 6.8 0.1
v 0.1 6.9 0.1
v 0.2 0 0.1
v 0.2 6.2 0.1
v 0.2 6.6 0.1
v 0.2 6.8 0.1
v 0.3 0 0.1
v 0.3 6.2 0.1
v 0.3 6.6 0.1
v -0.2 6.6 0
v -0.2 6.7 0
v -0.1 6.6 0
v -0.1 6.7 0
v -0.1 6.8 0
v -0.1 6.9 0
v 0 6.8 0
v 0 6.9 0
v 0.1 6.8 0
v 0.1 6.9 0
v 0.2 6.6 0
v 0.2 6.7 0
v 0.2 6.8 0
v 0.2 6.9 0
v 0.3 6.6 0
v 0.3 6.7 0
v -0.2 6.6 -0.1
v -0.2 6.7 -0.1
v -0.1 6.6 -0.1
v -0.1 6.7 -0.1
v -0.1 6.8 -0.1
v -0.1 6.9 -0.1
v 0 6.8 -0.1
v 0 6.9 -0.1
v 0.1 6.8 -0.1
v 0.1 6.9 -0.1
v 0.2 6.6 -0.1
v 0.2 6.7 -0.1
v 0.2 6.8 -0.1
v 0.2 6.9 -0.1
v 0.3 6.6 -0.1
v 0.3 6.7 -0.1
v -0.2 0 -0.2
v -0.2 6.2 -0.2
v -0.2 6.6 -0.2
v -0.1 0 -0.2
v -0.1 6.2 -0.2
v -0.1 6.6 -0.2
v -0.1 6.8 -0.2
v 0 6.6 -0.2
v 0 6.7 -0.2
v 0 6.8 -0.2
v 0 6.9 -0.2
v 0.1 6.6 -0.2
v 0.1 6.7 -0.2
v 0.1 6.8 -0.2
v 0.1 6.9 -0.2
v 0.2 0 -0.2
v 0.2 6.2 -0.2
v 0.2 6.6 -0.2
v 0.2 6.8 -0.2
v 0.3 0 -0.2
v 0.3 6.2 -0.2
v 0.3 6.6 -0.2
v -0.1 0 -0.3
v -0.1 6.2 -0.3
v -0.1 6.6 -0.3
v 0 6.6 -0.3
v 0 6.7 -0.3
v 0.1 6.6 -0.3
v 0.1 6.7 -0.3
v 0.2 0 -0.3
v 0.2 6.2 -0.3
v 0.2 6.6 -0.3
v -0.1 0 0.2
v 0.2 0 0.2
v -0.2 0 0.1
v -0.1 0 0.1
v 0.2 0 0.1
v 0.3 0 0.1
v -0.2 0 -0.2
v -0.1 0 -0.2
v 0.2 0 -0.2
v 0.3 0 -0.2
v -0.1 0 -0.3
v 0.2 0 -0.3
v -0.1 6.6 0.2
v 0 6.6 0.2
v 0.1 6.6 0.2
v 0.2 6.6 0.2
v -0.2 6.6 0.1
v -0.1 6.6 0.1
v 0 6.6 0.1
v 0.1 6.6 0.1
v 0.2 6.6 0.1
v 0.3 6.6 0.1
v -0.2 6.6 0
v -0.1 6.6 0
v 0.2 6.6 0
v 0.3 6.6 0
v -0.2 6.6 -0.1
v -0.1 6.6 -0.1
v 0.2 6.6 -0.1
v 0.3 6.6 -0.1
v -0.2 6.6 -0.2
v -0.1 6.6 -0.2
v 0 6.6 -0.2
v 0.1 6.6 -0.2
v 0.2 6.6 -0.2
v 0.3 6.6 -0.2
v -0.1 6.6 -0.3
v 0 6.6 -0.3
v 0.1 6.6 -0.3
v 0.2 6.6 -0.3
v 0 6.7 0.2
v 0.1 6.7 0.2
v 0 6.7 0.1
v 0.1 6.7 0.1
v -0.2 6.7 0
v -0.1 6.7 0
v 0.2 6.7 0
v 0.3 6.7 0
v -0.2 6.7 -0.1
v -0.1 6.7 -0.1
v 0.2 6.7 -0.1
v 0.3 6.7 -0.1
v 0 6.7 -0.2
v 0.1 6.7 -0.2
v 0 6.7 -0.3
v 0.1 6.7 -0.3
v -0.1 6.8 0.1
v 0 6.8 0.1
v 0.1 6.8 0.1
v 0.2 6.8 0.1
v -0.1 6.8 0
v 0 6.8 0
v 0.1 6.8 0
v 0.2 6.8 0
v -0.1 6.8 -0.1
v 0 6.8 -0.1
v 0.1 6.8 -0.1
v 0.2 6.8 -0.1
v -0.1 6.8 -0.2
v 0 6.8 -0.2
v 0.1 6.8 -0.2
v 0.2 6.8 -0.2
v 0 6.9 0.1
v 0.1 6.9 0.1
v -0.1 6.9 0
v 0 6.9 0
v 0.1 6.9 0
v 0.2 6.9 0
v -0.1 6.9 -0.1
v 0 6.9 -0.1
v 0.1 6.9 -0.1
v 0.2 6.9 -0.1
v 0 6.9 -0.2
v 0.1 6.9 -0.2

# faces
f 3/1/1 2/1/1 1/1/1
f 4/1/1 2/1/1 3/1/1
f 5/2/1 4/2/1 3/2/1
f 6/2/1 4/2/1 5/2/1
f 7/2/1 4/2/1 6/2/1
f 8/2/1 4/2/1 7/2/1
f 9/2/1 7/2/1 6/2/1
f 10/2/1 7/2/1 9/2/1
f 15/1/1 12/1/1 11/1/1
f 16/1/1 12/1/1 15/1/1
f 17/1/1 14/1/1 13/1/1
f 18/1/1 14/1/1 17/1/1
f 19/2/1 16/2/1 15/2/1
f 20/2/1 16/2/1 19/2/1
f 23/2/1 18/2/1 17/2/1
f 24/2/1 18/2/1 23/2/1
f 25/2/1 21/2/1 20/2/1
f 26/2/1 23/2/1 22/2/1
f 27/2/1 25/2/1 20/2/1
f 27/2/1 26/2/1 25/2/1
f 28/2/1 26/2/1 27/2/1
f 29/2/1 23/2/1 26/2/1
f 29/2/1 26/2/1 28/2/1
f 30/2/1 23/2/1 29/2/1
f 31/2/1 29/2/1 28/2/1
f 32/2/1 29/2/1 31/2/1
f 37/2/1 34/2/1 33/2/1
f 38/2/1 34/2/1 37/2/1
f 39/2/1 36/2/1 35/2/1
f 40/2/1 36/2/1 39/2/1
f 45/2/1 42/2/1 41/2/1
f 46/2/1 42/2/1 45/2/1
f 47/2/1 44/2/1 43/2/1
f 48/2/1 44/2/1 47/2/1
f 49/2/2 50/2/2 53/2/2
f 53/2/2 50/2/2 54/2/2
f 51/2/2 52/2/2 55/2/2
f 55/2/2 52/2/2 56/2/2
f 57/2/2 58/2/2 61/2/2
f 61/2/2 58/2/2 62/2/2
f 59/2/2 60/2/2 63/2/2
f 63/2/2 60/2/2 64/2/2
f 65/1/2 66/1/2 69/1/2
f 69/1/2 66/1/2 70/1/2
f 67/1/2 68/1/2 71/1/2
f 71/1/2 68/1/2 72/1/2
f 69/2/2 70/2/2 73/2/2
f 73/2/2 70/2/2 74/2/2
f 71/2/2 72/2/2 77/2/2
f 77/2/2 72/2/2 78/2/2
f 74/2/2 75/2/2 79/2/2
f 76/2/2 77/2/2 80/2/2
f 74/2/2 79/2/2 81/2/2
f 79/2/2 80/2/2 81/2/2
f 81/2/2 80/2/2 82/2/2
f 80/2/2 77/2/2 83/2/2
f 82/2/2 80/2/2 83/2/2
f 83/2/2 77/2/2 84/2/2
f 82/2/2 83/2/2 85/2/2
f 85/2/2 83/2/2 86/2/2
f 87/1/2 88/1/2 89/1/2
f 89/1/2 88/1/2 90/1/2
f 89/2/2 90/2/2 91/2/2
f 91/2/2 90/2/2 92/2/2
f 92/2/2 90/2/2 93/2/2
f 93/2/2 90/2/2 94/2/2
f 92/2/2 93/2/2 95/2/2
f 95/2/2 93/2/2 96/2/2
f 100/2/3 99/2/3 98/2/3
f 102/2/3 100/2/3 98/2/3
f 102/2/3 101/2/3 100/2/3
f 103/2/3 101/2/3 102/2/3
f 104/1/3 98/1/3 97/1/3
f 105/2/3 102/2/3 98/2/3
f 105/1/3 98/1/3 104/1/3
f 106/2/3 102/2/3 105/2/3
f 110/1/3 108/1/3 107/1/3
f 111/2/3 109/2/3 108/2/3
f 111/1/3 108/1/3 110/1/3
f 112/2/3 109/2/3 111/2/3
f 114/2/3 113/2/3 112/2/3
f 115/2/3 113/2/3 114/2/3
f 116/2/3 113/2/3 115/2/3
f 119/2/3 117/2/3 116/2/3
f 119/2/3 116/2/3 115/2/3
f 120/2/3 117/2/3 119/2/3
f 121/2/3 117/2/3 120/2/3
f 124/2/3 119/2/3 118/2/3
f 124/2/3 120/2/3 119/2/3
f 125/2/3 120/2/3 124/2/3
f 126/1/3 123/1/3 122/1/3
f 127/2/3 124/2/3 123/2/3
f 127/1/3 123/1/3 126/1/3
f 128/2/3 124/2/3 127/2/3
f 131/2/3 130/2/3 129/2/3
f 132/2/3 130/2/3 131/2/3
f 135/2/3 134/2/3 133/2/3
f 136/2/3 134/2/3 135/2/3
f 141/2/3 138/2/3 137/2/3
f 142/2/3 138/2/3 141/2/3
f 143/2/3 140/2/3 139/2/3
f 144/2/3 140/2/3 143/2/3
f 145/2/4 146/2/4 147/2/4
f 147/2/4 146/2/4 148/2/4
f 149/2/4 150/2/4 151/2/4
f 151/2/4 150/2/4 152/2/4
f 153/2/4 154/2/4 157/2/4
f 157/2/4 154/2/4 158/2/4
f 155/2/4 156/2/4 159/2/4
f 159/2/4 156/2/4 160/2/4
f 161/1/4 162/1/4 164/1/4
f 162/2/4 163/2/4 165/2/4
f 164/1/4 162/1/4 165/1/4
f 165/2/4 163/2/4 166/2/4
f 166/2/4 167/2/4 168/2/4
f 168/2/4 167/2/4 169/2/4
f 169/2/4 167/2/4 170/2/4
f 170/2/4 171/2/4 173/2/4
f 169/2/4 170/2/4 173/2/4
f 173/2/4 171/2/4 174/2/4
f 174/2/4 171/2/4 175/2/4
f 172/2/4 173/2/4 178/2/4
f 173/2/4 174/2/4 178/2/4
f 178/2/4 174/2/4 179/2/4
f 176/1/4 177/1/4 180/1/4
f 177/2/4 178/2/4 181/2/4
f 180/1/4 177/1/4 181/1/4
f 181/2/4 178/2/4 182/2/4
f 184/2/4 185/2/4 186/2/4
f 184/2/4 186/2/4 188/2/4
f 186/2/4 187/2/4 188/2/4
f 188/2/4 187/2/4 189/2/4
f 183/1/4 184/1/4 190/1/4
f 184/2/4 188/2/4 191/2/4
f 190/1/4 184/1/4 191/1/4
f 191/2/4 188/2/4 192/2/4
f 196/1/5 194/1/5 193/1/5
f 197/1/5 194/1/5 196/1/5
f 199/1/5 196/1/5 195/1/5
f 199/1/5 198/1/5 197/1/5
f 199/1/5 197/1/5 196/1/5
f 200/1/5 198/1/5 199/1/5
f 201/1/5 198/1/5 200/1/5
f 202/1/5 198/1/5 201/1/5
f 203/1/5 201/1/5 200/1/5
f 204/1/5 201/1/5 203/1/5
f 205/2/6 206/2/6 210/2/6
f 210/2/6 206/2/6 211/2/6
f 207/2/6 208/2/6 212/2/6
f 212/2/6 208/2/6 213/2/6
f 209/2/6 210/2/6 215/2/6
f 215/2/6 210/2/6 216/2/6
f 213/2/6 214/2/6 217/2/6
f 217/2/6 214/2/6 218/2/6
f 219/2/6 220/2/6 223/2/6
f 223/2/6 220/2/6 224/2/6
f 221/2/6 222/2/6 227/2/6
f 227/2/6 222/2/6 228/2/6
f 224/2/6 225/2/6 229/2/6
f 229/2/6 225/2/6 230/2/6
f 226/2/6 227/2/6 231/2/6
f 231/2/6 227/2/6 232/2/6
f 233/2/6 234/2/6 235/2/6
f 235/2/6 234/2/6 236/2/6
f 237/2/6 238/2/6 241/2/6
f 241/2/6 238/2/6 242/2/6
f 239/2/6 240/2/6 243/2/6
f 243/2/6 240/2/6 244/2/6
f 245/2/6 246/2/6 247/2/6
f 247/2/6 246/2/6 248/2/6
f 249/2/6 250/2/6 253/2/6
f 253/2/6 250/2/6 254/2/6
f 251/2/6 252/2/6 255/2/6
f 255/2/6 252/2/6 256/2/6
f 257/2/6 258/2/6 261/2/6
f 261/2/6 258/2/6 262/2/6
f 259/2/6 260/2/6 263/2/6
f 263/2/6 260/2/6 264/2/6
f 265/2/6 266/2/6 268/2/6
f 268/2/6 266/2/6 269/2/6
f 267/2/6 268/2/6 271/2/6
f 269/2/6 270/2/6 271/2/6
f 268/2/6 269/2/6 271/2/6
f 271/2/6 270/2/6 272/2/6
f 272/2/6 270/2/6 273/2/6
f 273/2/6 270/2/6 274/2/6
f 272/2/6 273/2/6 275/2/6
f 275/2/6 273/2/6 276/2/6
