# MagicaVoxel @ Ephtracy

# group
o 

# material
mtllib surprice1.mtl
usemtl palette

# normals
vn -1 0 0
vn 1 0 0
vn 0 0 1
vn 0 0 -1
vn 0 -1 0
vn 0 1 0

# texcoords
vt 0.853516 0.5
vt 0.888672 0.5

# verts
v -0.6 0 0.2
v -0.6 0 -0.2
v -0.6 0 -0.3
v -0.6 0 -0.7
v -0.6 0.9 0.2
v -0.6 0.9 -0.2
v -0.6 0.9 -0.3
v -0.6 0.9 -0.7
v -0.4 1 -0.2
v -0.4 1 -0.3
v -0.4 1.2 -0.2
v -0.4 1.2 -0.3
v -0.3 0.9 -0.2
v -0.3 0.9 -0.3
v -0.3 0.9 -0.4
v -0.3 1 -0.2
v -0.3 1 -0.3
v -0.3 1 -0.4
v -0.3 1.2 -0.2
v -0.3 1.2 -0.3
v -0.3 1.3 -0.2
v -0.3 1.3 -0.3
v -0.2 0.9 -0.1
v -0.2 0.9 -0.2
v -0.2 1 -0.1
v -0.2 1 -0.2
v -0.2 1.1 -0.2
v -0.2 1.1 -0.3
v -0.2 1.2 -0.2
v -0.2 1.2 -0.3
v -0.1 1 -0.2
v -0.1 1 -0.3
v -0.1 1.1 -0.2
v -0.1 1.1 -0.3
v -5.96046e-008 1.2 -0.2
v -5.96046e-008 1.2 -0.3
v -5.96046e-008 1.3 -0.2
v -5.96046e-008 1.3 -0.3
v 0.1 1.1 -0.2
v 0.1 1.1 -0.3
v 0.1 1.2 -0.2
v 0.1 1.2 -0.3
v -0.3 1.1 -0.2
v -0.3 1.1 -0.3
v -0.3 1.2 -0.2
v -0.3 1.2 -0.3
v -0.2 1 -0.2
v -0.2 1 -0.3
v -0.2 1.1 -0.2
v -0.2 1.1 -0.3
v -0.2 1.2 -0.2
v -0.2 1.2 -0.3
v -0.2 1.3 -0.2
v -0.2 1.3 -0.3
v -0.1 0.9 -0.3
v -0.1 0.9 -0.4
v -0.1 1 -0.3
v -0.1 1 -0.4
v -5.96046e-008 0.9 -0.1
v -5.96046e-008 0.9 -0.2
v -5.96046e-008 1 -0.1
v -5.96046e-008 1 -0.2
v -5.96046e-008 1.1 -0.2
v -5.96046e-008 1.1 -0.3
v -5.96046e-008 1.2 -0.2
v -5.96046e-008 1.2 -0.3
v 0.1 0.9 -0.2
v 0.1 0.9 -0.3
v 0.1 1.1 -0.2
v 0.1 1.1 -0.3
v 0.1 1.2 -0.2
v 0.1 1.2 -0.3
v 0.1 1.3 -0.2
v 0.1 1.3 -0.3
v 0.2 1.1 -0.2
v 0.2 1.1 -0.3
v 0.2 1.2 -0.2
v 0.2 1.2 -0.3
v 0.3 0 0.2
v 0.3 0 -0.2
v 0.3 0 -0.3
v 0.3 0 -0.7
v 0.3 0.9 0.2
v 0.3 0.9 -0.2
v 0.3 0.9 -0.3
v 0.3 0.9 -0.7
v -0.6 0 0.2
v -0.6 0.9 0.2
v -0.2 0 0.2
v -0.2 0.9 0.2
v -0.1 0 0.2
v -0.1 0.9 0.2
v 0.3 0 0.2
v 0.3 0.9 0.2
v -0.2 0.9 -0.1
v -0.2 1 -0.1
v -0.1 0.9 -0.1
v -5.96046e-008 0.9 -0.1
v -5.96046e-008 1 -0.1
v -0.4 1 -0.2
v -0.4 1.2 -0.2
v -0.3 0.9 -0.2
v -0.3 1 -0.2
v -0.3 1.1 -0.2
v -0.3 1.2 -0.2
v -0.3 1.3 -0.2
v -0.2 0.9 -0.2
v -0.2 1 -0.2
v -0.2 1.1 -0.2
v -0.2 1.2 -0.2
v -0.2 1.3 -0.2
v -0.1 1 -0.2
v -0.1 1.1 -0.2
v -5.96046e-008 0.9 -0.2
v -5.96046e-008 1 -0.2
v -5.96046e-008 1.1 -0.2
v -5.96046e-008 1.2 -0.2
v -5.96046e-008 1.3 -0.2
v 0.1 0.9 -0.2
v 0.1 1.1 -0.2
v 0.1 1.2 -0.2
v 0.1 1.3 -0.2
v 0.2 1.1 -0.2
v 0.2 1.2 -0.2
v -0.4 1 -0.3
v -0.4 1.2 -0.3
v -0.3 1 -0.3
v -0.3 1.1 -0.3
v -0.3 1.2 -0.3
v -0.3 1.3 -0.3
v -0.2 1 -0.3
v -0.2 1.1 -0.3
v -0.2 1.2 -0.3
v -0.2 1.3 -0.3
v -0.1 0.9 -0.3
v -0.1 1 -0.3
v -0.1 1.1 -0.3
v -5.96046e-008 1.1 -0.3
v -5.96046e-008 1.2 -0.3
v -5.96046e-008 1.3 -0.3
v 0.1 0.9 -0.3
v 0.1 1.1 -0.3
v 0.1 1.2 -0.3
v 0.1 1.3 -0.3
v 0.2 1.1 -0.3
v 0.2 1.2 -0.3
v -0.3 0.9 -0.4
v -0.3 1 -0.4
v -0.2 0.9 -0.4
v -0.1 0.9 -0.4
v -0.1 1 -0.4
v -0.6 0 -0.7
v -0.6 0.9 -0.7
v -0.2 0 -0.7
v -0.2 0.9 -0.7
v -0.1 0 -0.7
v -0.1 0.9 -0.7
v 0.3 0 -0.7
v 0.3 0.9 -0.7
v -0.6 0 0.2
v -0.2 0 0.2
v -0.1 0 0.2
v 0.3 0 0.2
v -0.6 0 -0.2
v -0.2 0 -0.2
v -0.1 0 -0.2
v 0.3 0 -0.2
v -0.6 0 -0.3
v -0.2 0 -0.3
v -0.1 0 -0.3
v 0.3 0 -0.3
v -0.6 0 -0.7
v -0.2 0 -0.7
v -0.1 0 -0.7
v 0.3 0 -0.7
v -0.4 1 -0.2
v -0.3 1 -0.2
v -0.4 1 -0.3
v -0.3 1 -0.3
v -0.2 1.1 -0.2
v -0.1 1.1 -0.2
v 0.1 1.1 -0.2
v 0.2 1.1 -0.2
v -0.2 1.1 -0.3
v -0.1 1.1 -0.3
v 0.1 1.1 -0.3
v 0.2 1.1 -0.3
v -0.3 1.2 -0.2
v -0.2 1.2 -0.2
v -5.96046e-008 1.2 -0.2
v 0.1 1.2 -0.2
v -0.3 1.2 -0.3
v -0.2 1.2 -0.3
v -5.96046e-008 1.2 -0.3
v 0.1 1.2 -0.3
v -0.6 0.9 0.2
v -0.2 0.9 0.2
v -0.1 0.9 0.2
v 0.3 0.9 0.2
v -0.2 0.9 -0.1
v -0.1 0.9 -0.1
v -5.96046e-008 0.9 -0.1
v -0.6 0.9 -0.2
v -0.3 0.9 -0.2
v -0.2 0.9 -0.2
v -5.96046e-008 0.9 -0.2
v 0.1 0.9 -0.2
v 0.3 0.9 -0.2
v -0.6 0.9 -0.3
v -0.3 0.9 -0.3
v -0.1 0.9 -0.3
v 0.1 0.9 -0.3
v 0.3 0.9 -0.3
v -0.3 0.9 -0.4
v -0.2 0.9 -0.4
v -0.1 0.9 -0.4
v -0.6 0.9 -0.7
v -0.2 0.9 -0.7
v -0.1 0.9 -0.7
v 0.3 0.9 -0.7
v -0.2 1 -0.1
v -5.96046e-008 1 -0.1
v -0.2 1 -0.2
v -0.1 1 -0.2
v -5.96046e-008 1 -0.2
v -0.3 1 -0.3
v -0.2 1 -0.3
v -0.1 1 -0.3
v -0.3 1 -0.4
v -0.1 1 -0.4
v -0.3 1.1 -0.2
v -0.2 1.1 -0.2
v -5.96046e-008 1.1 -0.2
v 0.1 1.1 -0.2
v -0.3 1.1 -0.3
v -0.2 1.1 -0.3
v -5.96046e-008 1.1 -0.3
v 0.1 1.1 -0.3
v -0.4 1.2 -0.2
v -0.3 1.2 -0.2
v -0.2 1.2 -0.2
v -5.96046e-008 1.2 -0.2
v 0.1 1.2 -0.2
v 0.2 1.2 -0.2
v -0.4 1.2 -0.3
v -0.3 1.2 -0.3
v -0.2 1.2 -0.3
v -5.96046e-008 1.2 -0.3
v 0.1 1.2 -0.3
v 0.2 1.2 -0.3
v -0.3 1.3 -0.2
v -0.2 1.3 -0.2
v -5.96046e-008 1.3 -0.2
v 0.1 1.3 -0.2
v -0.3 1.3 -0.3
v -0.2 1.3 -0.3
v -5.96046e-008 1.3 -0.3
v 0.1 1.3 -0.3

# faces
f 5/2/1 2/2/1 1/2/1
f 6/1/1 3/1/1 2/1/1
f 6/2/1 2/2/1 5/2/1
f 7/2/1 4/2/1 3/2/1
f 7/1/1 3/1/1 6/1/1
f 8/2/1 4/2/1 7/2/1
f 11/1/1 10/1/1 9/1/1
f 12/1/1 10/1/1 11/1/1
f 16/1/1 14/1/1 13/1/1
f 16/1/1 15/1/1 14/1/1
f 17/1/1 15/1/1 16/1/1
f 18/1/1 15/1/1 17/1/1
f 21/1/1 20/1/1 19/1/1
f 22/1/1 20/1/1 21/1/1
f 25/1/1 24/1/1 23/1/1
f 26/1/1 24/1/1 25/1/1
f 29/1/1 28/1/1 27/1/1
f 30/1/1 28/1/1 29/1/1
f 33/1/1 32/1/1 31/1/1
f 34/1/1 32/1/1 33/1/1
f 37/1/1 36/1/1 35/1/1
f 38/1/1 36/1/1 37/1/1
f 41/1/1 40/1/1 39/1/1
f 42/1/1 40/1/1 41/1/1
f 43/1/2 44/1/2 45/1/2
f 45/1/2 44/1/2 46/1/2
f 47/1/2 48/1/2 49/1/2
f 49/1/2 48/1/2 50/1/2
f 51/1/2 52/1/2 53/1/2
f 53/1/2 52/1/2 54/1/2
f 55/1/2 56/1/2 57/1/2
f 57/1/2 56/1/2 58/1/2
f 59/1/2 60/1/2 61/1/2
f 61/1/2 60/1/2 62/1/2
f 63/1/2 64/1/2 65/1/2
f 65/1/2 64/1/2 66/1/2
f 67/1/2 68/1/2 69/1/2
f 69/1/2 68/1/2 70/1/2
f 71/1/2 72/1/2 73/1/2
f 73/1/2 72/1/2 74/1/2
f 75/1/2 76/1/2 77/1/2
f 77/1/2 76/1/2 78/1/2
f 79/2/2 80/2/2 83/2/2
f 80/1/2 81/1/2 84/1/2
f 83/2/2 80/2/2 84/2/2
f 81/2/2 82/2/2 85/2/2
f 84/1/2 81/1/2 85/1/2
f 85/2/2 82/2/2 86/2/2
f 89/2/3 88/2/3 87/2/3
f 90/2/3 88/2/3 89/2/3
f 91/1/3 90/1/3 89/1/3
f 92/1/3 90/1/3 91/1/3
f 93/2/3 92/2/3 91/2/3
f 94/2/3 92/2/3 93/2/3
f 97/1/3 96/1/3 95/1/3
f 98/1/3 96/1/3 97/1/3
f 99/1/3 96/1/3 98/1/3
f 103/1/3 101/1/3 100/1/3
f 104/1/3 101/1/3 103/1/3
f 105/1/3 101/1/3 104/1/3
f 107/1/3 103/1/3 102/1/3
f 107/1/3 104/1/3 103/1/3
f 108/1/3 104/1/3 107/1/3
f 109/1/3 104/1/3 108/1/3
f 110/1/3 106/1/3 105/1/3
f 111/1/3 106/1/3 110/1/3
f 113/1/3 110/1/3 109/1/3
f 115/1/3 113/1/3 112/1/3
f 116/1/3 110/1/3 113/1/3
f 116/1/3 113/1/3 115/1/3
f 117/1/3 110/1/3 116/1/3
f 119/1/3 115/1/3 114/1/3
f 119/1/3 116/1/3 115/1/3
f 120/1/3 116/1/3 119/1/3
f 121/1/3 118/1/3 117/1/3
f 122/1/3 118/1/3 121/1/3
f 123/1/3 121/1/3 120/1/3
f 124/1/3 121/1/3 123/1/3
f 125/1/4 126/1/4 127/1/4
f 127/1/4 126/1/4 128/1/4
f 128/1/4 126/1/4 129/1/4
f 127/1/4 128/1/4 131/1/4
f 131/1/4 128/1/4 132/1/4
f 129/1/4 130/1/4 133/1/4
f 133/1/4 130/1/4 134/1/4
f 132/1/4 133/1/4 137/1/4
f 135/1/4 136/1/4 138/1/4
f 136/1/4 137/1/4 138/1/4
f 137/1/4 133/1/4 138/1/4
f 138/1/4 133/1/4 139/1/4
f 135/1/4 138/1/4 141/1/4
f 141/1/4 138/1/4 142/1/4
f 139/1/4 140/1/4 143/1/4
f 143/1/4 140/1/4 144/1/4
f 142/1/4 143/1/4 145/1/4
f 145/1/4 143/1/4 146/1/4
f 147/1/4 148/1/4 149/1/4
f 149/1/4 148/1/4 150/1/4
f 150/1/4 148/1/4 151/1/4
f 152/2/4 153/2/4 154/2/4
f 154/2/4 153/2/4 155/2/4
f 154/1/4 155/1/4 156/1/4
f 156/1/4 155/1/4 157/1/4
f 156/2/4 157/2/4 158/2/4
f 158/2/4 157/2/4 159/2/4
f 164/2/5 161/2/5 160/2/5
f 165/1/5 162/1/5 161/1/5
f 165/2/5 161/2/5 164/2/5
f 166/2/5 163/2/5 162/2/5
f 166/1/5 162/1/5 165/1/5
f 167/2/5 163/2/5 166/2/5
f 168/1/5 165/1/5 164/1/5
f 168/1/5 166/1/5 165/1/5
f 168/1/5 167/1/5 166/1/5
f 169/1/5 167/1/5 168/1/5
f 170/1/5 167/1/5 169/1/5
f 171/1/5 167/1/5 170/1/5
f 172/2/5 169/2/5 168/2/5
f 173/1/5 170/1/5 169/1/5
f 173/2/5 169/2/5 172/2/5
f 174/2/5 171/2/5 170/2/5
f 174/1/5 170/1/5 173/1/5
f 175/2/5 171/2/5 174/2/5
f 178/1/5 177/1/5 176/1/5
f 179/1/5 177/1/5 178/1/5
f 184/1/5 181/1/5 180/1/5
f 185/1/5 181/1/5 184/1/5
f 186/1/5 183/1/5 182/1/5
f 187/1/5 183/1/5 186/1/5
f 192/1/5 189/1/5 188/1/5
f 193/1/5 189/1/5 192/1/5
f 194/1/5 191/1/5 190/1/5
f 195/1/5 191/1/5 194/1/5
f 196/2/6 197/2/6 200/2/6
f 197/1/6 198/1/6 200/1/6
f 198/2/6 199/2/6 201/2/6
f 200/1/6 198/1/6 201/1/6
f 201/2/6 199/2/6 202/2/6
f 196/2/6 200/2/6 203/2/6
f 203/2/6 200/2/6 204/2/6
f 204/2/6 200/2/6 205/2/6
f 202/2/6 199/2/6 206/2/6
f 206/2/6 199/2/6 207/2/6
f 207/2/6 199/2/6 208/2/6
f 203/1/6 204/1/6 209/1/6
f 209/1/6 204/1/6 210/1/6
f 207/1/6 208/1/6 212/1/6
f 212/1/6 208/1/6 213/1/6
f 209/2/6 210/2/6 214/2/6
f 211/2/6 212/2/6 216/2/6
f 212/2/6 213/2/6 216/2/6
f 214/2/6 215/2/6 217/2/6
f 209/2/6 214/2/6 217/2/6
f 215/1/6 216/1/6 218/1/6
f 217/2/6 215/2/6 218/2/6
f 216/2/6 213/2/6 219/2/6
f 218/1/6 216/1/6 219/1/6
f 219/2/6 213/2/6 220/2/6
f 221/1/6 222/1/6 223/1/6
f 223/1/6 222/1/6 224/1/6
f 224/1/6 222/1/6 225/1/6
f 223/1/6 224/1/6 227/1/6
f 227/1/6 224/1/6 228/1/6
f 226/1/6 227/1/6 229/1/6
f 227/1/6 228/1/6 229/1/6
f 229/1/6 228/1/6 230/1/6
f 231/1/6 232/1/6 235/1/6
f 235/1/6 232/1/6 236/1/6
f 233/1/6 234/1/6 237/1/6
f 237/1/6 234/1/6 238/1/6
f 239/1/6 240/1/6 245/1/6
f 245/1/6 240/1/6 246/1/6
f 241/1/6 242/1/6 247/1/6
f 247/1/6 242/1/6 248/1/6
f 243/1/6 244/1/6 249/1/6
f 249/1/6 244/1/6 250/1/6
f 251/1/6 252/1/6 255/1/6
f 255/1/6 252/1/6 256/1/6
f 253/1/6 254/1/6 257/1/6
f 257/1/6 254/1/6 258/1/6
