# MagicaVoxel @ Ephtracy

# group
o 

# material
mtllib TV.mtl
usemtl palette

# normals
vn -1 0 0
vn 1 0 0
vn 0 0 1
vn 0 0 -1
vn 0 -1 0
vn 0 1 0

# texcoords
vt 0.857422 0.5
vt 0.994141 0.5

# verts
v -1.2 0.5 -0.4
v -1.2 0.5 -0.6
v -1.2 1.7 -0.4
v -1.2 1.7 -0.6
v -0.7 0 -0.4
v -0.7 0 -0.5
v -0.7 0.1 -0.4
v -0.7 0.1 -0.5
v -0.2 0 -0.3
v -0.2 0 -0.4
v -0.2 0 -0.5
v -0.2 0 -0.8
v -0.2 0.1 -0.3
v -0.2 0.1 -0.4
v -0.2 0.1 -0.5
v -0.2 0.1 -0.6
v -0.2 0.1 -0.8
v -0.2 0.5 -0.4
v -0.2 0.5 -0.6
v 0 0 -0.3
v 0 0 -0.4
v 0 0 -0.5
v 0 0 -0.8
v 0 0.1 -0.3
v 0 0.1 -0.4
v 0 0.1 -0.5
v 0 0.1 -0.6
v 0 0.1 -0.8
v 0 0.5 -0.4
v 0 0.5 -0.6
v 0.5 0 -0.4
v 0.5 0 -0.5
v 0.5 0.1 -0.4
v 0.5 0.1 -0.5
v 1 0.5 -0.4
v 1 0.5 -0.6
v 1 1.7 -0.4
v 1 1.7 -0.6
v -0.2 0 -0.3
v -0.2 0.1 -0.3
v 0 0 -0.3
v 0 0.1 -0.3
v -1.2 0.5 -0.4
v -1.2 1.7 -0.4
v -0.7 0 -0.4
v -0.7 0.1 -0.4
v -0.2 0 -0.4
v -0.2 0.1 -0.4
v -0.2 0.5 -0.4
v -0.1 0.5 -0.4
v -0.1 0.6 -0.4
v 0 0 -0.4
v 0 0.1 -0.4
v 0 0.5 -0.4
v 0 0.6 -0.4
v 0.5 0 -0.4
v 0.5 0.1 -0.4
v 1 0.5 -0.4
v 1 1.7 -0.4
v -0.7 0 -0.5
v -0.7 0.1 -0.5
v -0.2 0 -0.5
v -0.2 0.1 -0.5
v 0 0 -0.5
v 0 0.1 -0.5
v 0.5 0 -0.5
v 0.5 0.1 -0.5
v -1.2 0.5 -0.6
v -1.2 1.7 -0.6
v -0.2 0.1 -0.6
v -0.2 0.5 -0.6
v 0 0.1 -0.6
v 0 0.5 -0.6
v 1 0.5 -0.6
v 1 1.7 -0.6
v -0.2 0 -0.8
v -0.2 0.1 -0.8
v 0 0 -0.8
v 0 0.1 -0.8
v -0.2 0 -0.3
v 0 0 -0.3
v -0.7 0 -0.4
v -0.2 0 -0.4
v 0 0 -0.4
v 0.5 0 -0.4
v -0.7 0 -0.5
v -0.2 0 -0.5
v 0 0 -0.5
v 0.5 0 -0.5
v -0.2 0 -0.8
v 0 0 -0.8
v -1.2 0.5 -0.4
v -0.2 0.5 -0.4
v 0 0.5 -0.4
v 1 0.5 -0.4
v -1.2 0.5 -0.6
v -0.2 0.5 -0.6
v 0 0.5 -0.6
v 1 0.5 -0.6
v -0.2 0.1 -0.3
v 0 0.1 -0.3
v -0.7 0.1 -0.4
v -0.2 0.1 -0.4
v 0 0.1 -0.4
v 0.5 0.1 -0.4
v -0.7 0.1 -0.5
v -0.2 0.1 -0.5
v 0 0.1 -0.5
v 0.5 0.1 -0.5
v -0.2 0.1 -0.6
v 0 0.1 -0.6
v -0.2 0.1 -0.8
v 0 0.1 -0.8
v -1.2 1.7 -0.4
v 1 1.7 -0.4
v -1.2 1.7 -0.6
v 1 1.7 -0.6

# faces
f 3/2/1 2/2/1 1/2/1
f 4/2/1 2/2/1 3/2/1
f 7/2/1 6/2/1 5/2/1
f 8/2/1 6/2/1 7/2/1
f 13/2/1 10/2/1 9/2/1
f 14/2/1 10/2/1 13/2/1
f 15/2/1 12/2/1 11/2/1
f 16/2/1 12/2/1 15/2/1
f 17/2/1 12/2/1 16/2/1
f 18/2/1 15/2/1 14/2/1
f 18/2/1 16/2/1 15/2/1
f 19/2/1 16/2/1 18/2/1
f 20/2/2 21/2/2 24/2/2
f 24/2/2 21/2/2 25/2/2
f 22/2/2 23/2/2 26/2/2
f 26/2/2 23/2/2 27/2/2
f 27/2/2 23/2/2 28/2/2
f 25/2/2 26/2/2 29/2/2
f 26/2/2 27/2/2 29/2/2
f 29/2/2 27/2/2 30/2/2
f 31/2/2 32/2/2 33/2/2
f 33/2/2 32/2/2 34/2/2
f 35/2/2 36/2/2 37/2/2
f 37/2/2 36/2/2 38/2/2
f 41/2/3 40/2/3 39/2/3
f 42/2/3 40/2/3 41/2/3
f 47/2/3 46/2/3 45/2/3
f 48/2/3 46/2/3 47/2/3
f 49/2/3 44/2/3 43/2/3
f 50/2/3 49/2/3 48/2/3
f 50/2/3 44/2/3 49/2/3
f 51/2/3 44/2/3 50/2/3
f 53/2/3 50/2/3 48/2/3
f 54/1/3 51/1/3 50/1/3
f 54/2/3 50/2/3 53/2/3
f 55/2/3 44/2/3 51/2/3
f 55/1/3 51/1/3 54/1/3
f 56/2/3 53/2/3 52/2/3
f 57/2/3 53/2/3 56/2/3
f 58/2/3 55/2/3 54/2/3
f 59/2/3 44/2/3 55/2/3
f 59/2/3 55/2/3 58/2/3
f 60/2/4 61/2/4 62/2/4
f 62/2/4 61/2/4 63/2/4
f 64/2/4 65/2/4 66/2/4
f 66/2/4 65/2/4 67/2/4
f 68/2/4 69/2/4 71/2/4
f 70/2/4 71/2/4 72/2/4
f 71/2/4 69/2/4 73/2/4
f 72/2/4 71/2/4 73/2/4
f 73/2/4 69/2/4 74/2/4
f 74/2/4 69/2/4 75/2/4
f 76/2/4 77/2/4 78/2/4
f 78/2/4 77/2/4 79/2/4
f 83/2/5 81/2/5 80/2/5
f 84/2/5 81/2/5 83/2/5
f 86/2/5 83/2/5 82/2/5
f 86/2/5 85/2/5 84/2/5
f 86/2/5 84/2/5 83/2/5
f 87/2/5 85/2/5 86/2/5
f 88/2/5 85/2/5 87/2/5
f 89/2/5 85/2/5 88/2/5
f 90/2/5 88/2/5 87/2/5
f 91/2/5 88/2/5 90/2/5
f 96/2/5 93/2/5 92/2/5
f 97/2/5 93/2/5 96/2/5
f 98/2/5 95/2/5 94/2/5
f 99/2/5 95/2/5 98/2/5
f 100/2/6 101/2/6 103/2/6
f 103/2/6 101/2/6 104/2/6
f 102/2/6 103/2/6 106/2/6
f 106/2/6 103/2/6 107/2/6
f 104/2/6 105/2/6 108/2/6
f 108/2/6 105/2/6 109/2/6
f 110/2/6 111/2/6 112/2/6
f 112/2/6 111/2/6 113/2/6
f 114/2/6 115/2/6 116/2/6
f 116/2/6 115/2/6 117/2/6
