# MagicaVoxel @ Ephtracy

# group
o 

# material
mtllib R-301-0.mtl
usemtl palette

# normals
vn -1 0 0
vn 1 0 0
vn 0 0 1
vn 0 0 -1
vn 0 -1 0
vn 0 1 0

# texcoords
vt 0.0253906 0.5
vt 0.228516 0.5
vt 0.345703 0.5
vt 0.353516 0.5

# verts
v -0.1 3.7 0.4
v -0.1 3.7 0.3
v -0.1 3.7 0.2
v -0.1 3.9 0.4
v -0.1 3.9 0.3
v -0.1 3.9 0.2
v -0.1 3.9 0
v -0.1 4 0.2
v -0.1 4 0.1
v -0.1 4 0
v -0.1 4.1 0.4
v -0.1 4.1 0.2
v -0.1 4.1 0.1
v 0 3.7 0.2
v 0 3.7 0.1
v 0 3.9 0.2
v 0 3.9 0.1
v 0.1 3.7 0.2
v 0.1 3.7 0.1
v 0.1 3.9 0.2
v 0.1 3.9 0.1
v 0.2 3.7 0.4
v 0.2 3.7 0.3
v 0.2 3.7 0.2
v 0.2 3.9 0.4
v 0.2 3.9 0.3
v 0.2 3.9 0.2
v 0.2 3.9 0
v 0.2 4 0.4
v 0.2 4 0.3
v 0.2 4 0.2
v 0.2 4 0.1
v 0.2 4 0
v 0.2 4.1 0.4
v 0.2 4.1 0.3
v 0.2 4.1 0.2
v 0.2 4.1 0.1
v -0.1 3.7 0.4
v -0.1 3.9 0.4
v -0.1 4.1 0.4
v 0 3.7 0.4
v 0 3.9 0.4
v 0 4 0.4
v 0 4.1 0.4
v 0.1 3.7 0.4
v 0.1 3.9 0.4
v 0.1 4 0.4
v 0.1 4.1 0.4
v 0.2 3.7 0.4
v 0.2 3.9 0.4
v 0.2 4 0.4
v 0.2 4.1 0.4
v -0.1 3.7 0.2
v -0.1 3.9 0.2
v 0 3.7 0.2
v 0 3.9 0.2
v 0.1 3.7 0.2
v 0.1 3.9 0.2
v 0.2 3.7 0.2
v 0.2 3.9 0.2
v -0.1 4 0.1
v -0.1 4.1 0.1
v 0 3.7 0.1
v 0 3.9 0.1
v 0 4 0.1
v 0 4.1 0.1
v 0.1 3.7 0.1
v 0.1 3.9 0.1
v 0.1 4 0.1
v 0.2 4 0.1
v 0.2 4.1 0.1
v -0.1 3.9 0
v -0.1 4 0
v 0 3.9 0
v 0 4 0
v 0.1 3.9 0
v 0.1 4 0
v 0.2 3.9 0
v 0.2 4 0
v -0.1 3.7 0.4
v 0 3.7 0.4
v 0.1 3.7 0.4
v 0.2 3.7 0.4
v -0.1 3.7 0.3
v 0 3.7 0.3
v 0.1 3.7 0.3
v 0.2 3.7 0.3
v -0.1 3.7 0.2
v 0 3.7 0.2
v 0.1 3.7 0.2
v 0.2 3.7 0.2
v 0 3.7 0.1
v 0.1 3.7 0.1
v -0.1 3.9 0.2
v 0 3.9 0.2
v 0.1 3.9 0.2
v 0.2 3.9 0.2
v 0 3.9 0.1
v 0.1 3.9 0.1
v -0.1 3.9 0
v 0 3.9 0
v 0.1 3.9 0
v 0.2 3.9 0
v -0.1 4 0.1
v 0 4 0.1
v 0.1 4 0.1
v 0.2 4 0.1
v -0.1 4 0
v 0 4 0
v 0.1 4 0
v 0.2 4 0
v -0.1 4.1 0.4
v 0 4.1 0.4
v 0.1 4.1 0.4
v 0.2 4.1 0.4
v 0 4.1 0.3
v 0.1 4.1 0.3
v 0.2 4.1 0.3
v -0.1 4.1 0.2
v 0 4.1 0.2
v 0.1 4.1 0.2
v 0.2 4.1 0.2
v -0.1 4.1 0.1
v 0 4.1 0.1
v 0.2 4.1 0.1

# faces
f 4/4/1 2/4/1 1/4/1
f 5/3/1 3/3/1 2/3/1
f 5/4/1 2/4/1 4/4/1
f 6/3/1 3/3/1 5/3/1
f 8/3/1 5/3/1 4/3/1
f 8/3/1 7/3/1 6/3/1
f 8/3/1 6/3/1 5/3/1
f 9/3/1 7/3/1 8/3/1
f 10/3/1 7/3/1 9/3/1
f 11/3/1 8/3/1 4/3/1
f 12/4/1 9/4/1 8/4/1
f 12/3/1 8/3/1 11/3/1
f 13/4/1 9/4/1 12/4/1
f 16/3/1 15/3/1 14/3/1
f 17/3/1 15/3/1 16/3/1
f 18/3/2 19/3/2 20/3/2
f 20/3/2 19/3/2 21/3/2
f 22/4/2 23/4/2 25/4/2
f 23/3/2 24/3/2 26/3/2
f 25/4/2 23/4/2 26/4/2
f 26/3/2 24/3/2 27/3/2
f 25/1/2 26/1/2 29/1/2
f 27/1/2 28/1/2 29/1/2
f 26/1/2 27/1/2 29/1/2
f 29/1/2 28/1/2 30/1/2
f 30/1/2 28/1/2 31/1/2
f 31/1/2 28/1/2 32/1/2
f 32/1/2 28/1/2 33/1/2
f 29/3/2 30/3/2 34/3/2
f 30/4/2 31/4/2 35/4/2
f 34/3/2 30/3/2 35/3/2
f 31/3/2 32/3/2 36/3/2
f 35/4/2 31/4/2 36/4/2
f 36/3/2 32/3/2 37/3/2
f 41/4/3 39/4/3 38/4/3
f 42/3/3 40/3/3 39/3/3
f 42/4/3 39/4/3 41/4/3
f 43/3/3 40/3/3 42/3/3
f 44/3/3 40/3/3 43/3/3
f 45/3/3 42/3/3 41/3/3
f 46/2/3 43/2/3 42/2/3
f 46/3/3 42/3/3 45/3/3
f 47/4/3 44/4/3 43/4/3
f 47/2/3 43/2/3 46/2/3
f 48/4/3 44/4/3 47/4/3
f 49/4/3 46/4/3 45/4/3
f 50/1/3 47/1/3 46/1/3
f 50/4/3 46/4/3 49/4/3
f 51/3/3 48/3/3 47/3/3
f 51/1/3 47/1/3 50/1/3
f 52/3/3 48/3/3 51/3/3
f 53/3/4 54/3/4 55/3/4
f 55/3/4 54/3/4 56/3/4
f 57/3/4 58/3/4 59/3/4
f 59/3/4 58/3/4 60/3/4
f 61/4/4 62/4/4 65/4/4
f 65/4/4 62/4/4 66/4/4
f 63/3/4 64/3/4 67/3/4
f 67/3/4 64/3/4 68/3/4
f 65/3/4 66/3/4 69/3/4
f 69/3/4 66/3/4 70/3/4
f 70/3/4 66/3/4 71/3/4
f 72/3/4 73/3/4 74/3/4
f 74/3/4 73/3/4 75/3/4
f 74/2/4 75/2/4 76/2/4
f 76/2/4 75/2/4 77/2/4
f 76/1/4 77/1/4 78/1/4
f 78/1/4 77/1/4 79/1/4
f 84/4/5 81/4/5 80/4/5
f 85/3/5 82/3/5 81/3/5
f 85/4/5 81/4/5 84/4/5
f 86/4/5 83/4/5 82/4/5
f 86/3/5 82/3/5 85/3/5
f 87/4/5 83/4/5 86/4/5
f 88/3/5 85/3/5 84/3/5
f 88/3/5 86/3/5 85/3/5
f 88/3/5 87/3/5 86/3/5
f 89/3/5 87/3/5 88/3/5
f 90/3/5 87/3/5 89/3/5
f 91/3/5 87/3/5 90/3/5
f 92/3/5 90/3/5 89/3/5
f 93/3/5 90/3/5 92/3/5
f 98/3/5 95/3/5 94/3/5
f 99/1/5 97/1/5 96/1/5
f 100/3/5 98/3/5 94/3/5
f 101/2/5 99/2/5 98/2/5
f 101/3/5 98/3/5 100/3/5
f 102/1/5 97/1/5 99/1/5
f 102/2/5 99/2/5 101/2/5
f 103/1/5 97/1/5 102/1/5
f 104/3/6 105/3/6 108/3/6
f 105/2/6 106/2/6 109/2/6
f 108/3/6 105/3/6 109/3/6
f 106/1/6 107/1/6 110/1/6
f 109/2/6 106/2/6 110/2/6
f 110/1/6 107/1/6 111/1/6
f 112/3/6 113/3/6 116/3/6
f 113/4/6 114/4/6 116/4/6
f 114/3/6 115/3/6 117/3/6
f 116/4/6 114/4/6 117/4/6
f 117/3/6 115/3/6 118/3/6
f 112/3/6 116/3/6 119/3/6
f 116/3/6 117/3/6 119/3/6
f 119/3/6 117/3/6 120/3/6
f 117/4/6 118/4/6 121/4/6
f 120/3/6 117/3/6 121/3/6
f 121/4/6 118/4/6 122/4/6
f 119/4/6 120/4/6 123/4/6
f 120/3/6 121/3/6 124/3/6
f 123/4/6 120/4/6 124/4/6
f 121/3/6 122/3/6 124/3/6
f 124/3/6 122/3/6 125/3/6
